<!-- gear-icon.svg -->
<svg xmlns="http://www.w3.org/2000/svg" width="23" height="23" viewBox="2 2 20 20" fill="#035ba9">
  <path d="M12 15.5A3.5 3.5 0 1 1 15.5 12 3.5 3.5 0 0 1 12 15.5Zm0-5A1.5 1.5 0 1 0 13.5 12 1.5 1.5 0 0 0 12 10.5Z"/>
  <path d="M19.43 12.98a7.46 7.46 0 0 0 .05-.98 7.46 7.46 0 0 0-.05-.98l2.11-1.65a.5.5 0 0 0 .12-.65l-2-3.46a.5.5 0 0 0-.6-.22l-2.49 1a7.22 7.22 0 0 0-1.7-.98l-.38-2.65a.5.5 0 0 0-.5-.42h-4a.5.5 0 0 0-.5.42l-.38 2.65a7.22 7.22 0 0 0-1.7.98l-2.49-1a.5.5 0 0 0-.6.22l-2 3.46a.5.5 0 0 0 .12.65L4.57 11a7.46 7.46 0 0 0-.05.98 7.46 7.46 0 0 0 .05.98l-2.11 1.65a.5.5 0 0 0-.12.65l2 3.46a.5.5 0 0 0 .6.22l2.49-1a7.22 7.22 0 0 0 1.7.98l.38 2.65a.5.5 0 0 0 .5.42h4a.5.5 0 0 0 .5-.42l.38-2.65a7.22 7.22 0 0 0 1.7-.98l2.49 1a.5.5 0 0 0 .6-.22l2-3.46a.5.5 0 0 0-.12-.65ZM12 16a4 4 0 1 1 4-4 4 4 0 0 1-4 4Z"/>
</svg>
