<svg xmlns="http://www.w3.org/2000/svg" width="40" height="40" viewBox="0 0 40 40" fill="none">
  <path transform="translate(0, 0)" d="M29.75 11.75H10.25C9.83516 11.75 9.5 12.0852 9.5 12.5V27.5C9.5 27.9148 9.83516 28.25 10.25 28.25H29.75C30.1648 28.25 30.5 27.9148 30.5 27.5V12.5C30.5 12.0852 30.1648 11.75 29.75 11.75ZM28.8125 26.5625H11.1875V25.6273L14.4336 21.7766L17.9516 25.9484L23.4242 19.4609L28.8125 25.85V26.5625ZM28.8125 23.5203L23.5672 17.3C23.4922 17.2109 23.3563 17.2109 23.2812 17.3L17.9516 23.6188L14.5766 19.618C14.5016 19.5289 14.3656 19.5289 14.2906 19.618L11.1875 23.2977V13.4375H28.8125V23.5203ZM15.125 18.6875C15.3959 18.6875 15.6641 18.6342 15.9143 18.5305C16.1645 18.4269 16.3919 18.2749 16.5834 18.0834C16.7749 17.8919 16.9269 17.6645 17.0305 17.4143C17.1342 17.1641 17.1875 16.8959 17.1875 16.625C17.1875 16.3541 17.1342 16.0859 17.0305 15.8357C16.9269 15.5855 16.7749 15.3581 16.5834 15.1666C16.3919 14.9751 16.1645 14.8231 15.9143 14.7195C15.6641 14.6158 15.3959 14.5625 15.125 14.5625C14.578 14.5625 14.0534 14.7798 13.6666 15.1666C13.2798 15.5534 13.0625 16.078 13.0625 16.625C13.0625 17.172 13.2798 17.6966 13.6666 18.0834C14.0534 18.4702 14.578 18.6875 15.125 18.6875V18.6875ZM15.125 15.9688C15.4883 15.9688 15.7812 16.2617 15.7812 16.625C15.7812 16.9883 15.4883 17.2812 15.125 17.2812C14.7617 17.2812 14.4688 16.9883 14.4688 16.625C14.4688 16.2617 14.7617 15.9688 15.125 15.9688Z" fill="#BFBFBF"/>
</svg>